<?xml version="1.0" encoding="UTF-8" standalone="no"?>
<!-- Created with Inkscape (http://www.inkscape.org/) -->

<svg
   xmlns:dc="http://purl.org/dc/elements/1.1/"
   xmlns:cc="http://creativecommons.org/ns#"
   xmlns:rdf="http://www.w3.org/1999/02/22-rdf-syntax-ns#"
   xmlns:svg="http://www.w3.org/2000/svg"
   xmlns="http://www.w3.org/2000/svg"
   xmlns:sodipodi="http://sodipodi.sourceforge.net/DTD/sodipodi-0.dtd"
   xmlns:inkscape="http://www.inkscape.org/namespaces/inkscape"
   width="744.09448819"
   height="1052.3622047"
   id="svg2"
   version="1.1"
   inkscape:version="0.48.3.1 r9886"
   sodipodi:docname="mcor-logo2.svg">
  <defs
     id="defs4" />
  <sodipodi:namedview
     id="base"
     pagecolor="#ffffff"
     bordercolor="#666666"
     borderopacity="1.0"
     inkscape:pageopacity="0.0"
     inkscape:pageshadow="2"
     inkscape:zoom="0.49497475"
     inkscape:cx="76.367964"
     inkscape:cy="343.33591"
     inkscape:document-units="px"
     inkscape:current-layer="layer1"
     showgrid="false"
     inkscape:window-width="1280"
     inkscape:window-height="976"
     inkscape:window-x="-3"
     inkscape:window-y="-3"
     inkscape:window-maximized="1"
     showguides="true"
     inkscape:guide-bbox="true" />
  <metadata
     id="metadata7">
    <rdf:RDF>
      <cc:Work
         rdf:about="">
        <dc:format>image/svg+xml</dc:format>
        <dc:type
           rdf:resource="http://purl.org/dc/dcmitype/StillImage" />
        <dc:title />
      </cc:Work>
    </rdf:RDF>
  </metadata>
  <g
     inkscape:label="background"
     inkscape:groupmode="layer"
     id="layer1"
     style="display:none">
    <flowRoot
       xml:space="preserve"
       id="flowRoot2985"
       style="font-size:140px;font-style:normal;font-variant:normal;font-weight:bold;font-stretch:normal;line-height:125%;letter-spacing:0px;word-spacing:0px;fill:#d40000;fill-opacity:1;stroke:none;font-family:Adventure Subtitles;-inkscape-font-specification:Adventure Subtitles Bold"
       transform="matrix(4.6463277,0,0,3.7185063,-257.05803,-641.09266)"><flowRegion
         id="flowRegion2987"><rect
           id="rect2989"
           width="422.85715"
           height="434.28571"
           x="92.85714"
           y="182.36218"
           style="font-size:140px;font-style:normal;font-variant:normal;font-weight:bold;font-stretch:normal;fill:#d40000;font-family:Adventure Subtitles;-inkscape-font-specification:Adventure Subtitles Bold" /></flowRegion><flowPara
         id="flowPara2991">R</flowPara></flowRoot>  </g>
  <g
     inkscape:groupmode="layer"
     id="layer2"
     inkscape:label="outline"
     style="display:inline">
    <path
       style="fill:#e45956;fill-opacity:1;stroke:#000000;stroke-width:1px;stroke-linecap:butt;stroke-linejoin:miter;stroke-opacity:1"
       d="m 173.74624,136.15382 0,488.91384 -52.52793,0 0,68.22427 52.45614,-0.35714 -0.35714,70.52376 78.36296,0 -0.71429,-69.49566 58.1407,-0.25254 0,-68.98932 -57.5787,0.35714 0,-269.72124 69.70053,0 192.93914,201.02035 59.09392,-49.49748 -138.89598,-153.54318 c 0,0 44.95179,3.53553 68.69038,-1.51523 23.73858,-5.05076 36.77723,-12.57723 46.46702,-22.72843 10.6066,-11.11168 16.16243,-24.24366 16.66751,-46.97209 0.30297,-13.6337 -0.50508,-85.35789 -0.50508,-85.35789 0,0 -1.92885,-25.09529 -20.20305,-40.40611 -18.68781,-15.65736 -33.33503,-20.20305 -63.63961,-21.71828 -30.30457,-1.51522 -308.09652,1.51523 -308.09652,1.51523 z"
       id="path3062"
       inkscape:connector-curvature="0"
       sodipodi:nodetypes="ccccccccccccccccssscssc" />
  </g>
  <g
     inkscape:groupmode="layer"
     id="layer3"
     inkscape:label="innerdot"
     style="display:inline">
    <path
       style="fill:#ffffff;stroke:#000000;stroke-width:1px;stroke-linecap:butt;stroke-linejoin:miter;stroke-opacity:1"
       d="m 251.68209,200.15106 0,93.94419 c 0,0 181.82745,5.05076 203.04066,0 21.2132,-5.05077 32.32488,-16.16244 32.32488,-30.30458 0,-14.14214 5.05076,-39.39595 0,-49.49748 -5.05076,-10.10152 -13.13198,-16.16244 -26.26397,-17.17259 -13.13198,-1.01015 -209.10157,3.03046 -209.10157,3.03046 z"
       id="path3064-0"
       inkscape:connector-curvature="0" />
  </g>
</svg>
